#!OML:ASF F:\VICON\USERDATA\INSTALL\rory3\rory3.ASF
:FULLY-SPECIFIED
:DEGREES
427
root 3.55741 16.7215 -0.0156954 8.36696 -2.10072 2.65474
lowerback -1.66642 0.605071 -1.00525
upperback 2.07407 0.906026 -2.43036
thorax 3.08997 0.458755 -1.89692
lowerneck -4.87048 10.0551 5.33287
upperneck 52.8049 14.7624 2.19634
head 23.9814 6.83707 3.11231
rclavicle 4.47266e-015 -2.78299e-015
rhumerus -17.1684 9.00864 -89.6853
rradius 89.4334
rwrist -52.9751
rhand -3.76131 -39.593
rfingers 7.12502
rthumb 21.9832 -68.3638
lclavicle 4.47266e-015 -2.78299e-015
lhumerus 1.25252 -12.385 79.2144
lradius 64.7175
lwrist 70.7335
lhand -30.271 -14.1203
lfingers 7.12502
lthumb -3.57915 15.8294
rfemur -53.7036 9.75791 12.9793
rtibia 76.129
rfoot 14.5681 1.67116
rtoes -19.1886
lfemur -28.5959 -3.25902 -30.425
ltibia 43.749
lfoot -20.5262 16.0001
ltoes 10.909
428
root 3.5579 16.7165 -0.00820056 8.37137 -2.17975 2.64389
lowerback -1.80962 0.661765 -1.0158
upperback 2.13525 0.98719 -2.42142
thorax 3.23584 0.498996 -1.87663
lowerneck -4.86121 10.0436 5.271
upperneck 52.7358 14.7413 2.21276
head 23.8842 6.82632 3.11575
rclavicle 6.85807e-015 8.34896e-015
rhumerus -17.3356 8.77435 -89.791
rradius 89.2083
rwrist -52.8792
rhand -3.71482 -39.3992
rfingers 7.12502
rthumb 22.0278 -68.1648
lclavicle 6.85807e-015 8.34896e-015
lhumerus 1.12275 -12.3615 79.4047
lradius 64.6539
lwrist 70.7331
lhand -29.5991 -14.7534
lfingers 7.12502
lthumb -2.93031 15.2062
rfemur -53.7136 9.90316 12.9444
rtibia 76.1537
rfoot 14.5457 1.82946
rtoes -19.748
lfemur -28.6725 -3.22883 -30.4208
ltibia 43.9122
lfoot -20.642 16.036
ltoes 10.6843
429
root 3.55649 16.7032 -0.005804 8.33713 -2.19909 2.5792
lowerback -1.74986 0.705075 -0.954786
upperback 2.12131 1.04111 -2.4217
thorax 3.19017 0.527315 -1.90936
lowerneck -4.68752 10.0256 5.23487
upperneck 52.6975 14.7117 2.22894
head 23.7586 6.82292 3.09895
rclavicle 1.0635e-014 -2.42517e-014
rhumerus -17.8657 8.42857 -89.9961
rradius 89.0981
rwrist -52.7548
rhand -3.31679 -39.9343
rfingers 7.12502
rthumb 22.4099 -68.6543
lclavicle 1.0635e-014 -2.42517e-014
lhumerus 0.89091 -12.2717 79.6324
lradius 64.5744
lwrist 70.6882
lhand -28.831 -14.8145
lfingers 7.12502
lthumb -2.18845 15.154
rfemur -53.7076 9.98702 13.0082
rtibia 76.1998
rfoot 14.3763 1.91558
rtoes -19.9801
lfemur -28.7182 -3.16186 -30.3562
ltibia 44.0685
lfoot -20.8186 15.9438
ltoes 10.7633
430
root 3.5576 16.6967 -0.000303273 8.2953 -2.4143 2.4673
lowerback -1.72766 0.76875 -0.857428
upperback 2.09705 1.121 -2.39604
thorax 3.15601 0.569024 -1.93425
lowerneck -4.43022 10.0449 5.20623
upperneck 52.7136 14.7951 2.1561
head 23.6846 6.8514 3.05429
rclavicle -5.56597e-015 7.95139e-015
rhumerus -18.1311 8.3988 -90.147
rradius 88.7631
rwrist -52.7291
rhand -2.98978 -41.2544
rfingers 7.12502
rthumb 22.7238 -69.9363
lclavicle -5.56597e-015 7.95139e-015
lhumerus 0.493107 -11.9981 79.9133
lradius 64.4856
lwrist 70.5892
lhand -28.0425 -14.9823
lfingers 7.12502
lthumb -1.42697 14.9927
rfemur -53.6719 10.2263 13.1029
rtibia 76.188
rfoot 14.207 1.84377
rtoes -19.8107
lfemur -28.7163 -2.99739 -30.2598
ltibia 44.1542
lfoot -20.909 15.9883
ltoes 11.1156
431
root 3.56165 16.7011 0.00724818 8.21046 -2.56955 2.42121
lowerback -1.6837 0.83737 -0.802564
upperback 2.09094 1.20931 -2.3848
thorax 3.12824 0.61417 -1.9501
lowerneck -4.29417 10.0421 5.22628
upperneck 52.7794 14.8395 2.0856
head 23.7225 6.86668 3.01695
rclavicle 3.57812e-015 1.63003e-014
rhumerus -18.1643 8.39766 -90.1795
rradius 88.306
rwrist -52.7714
rhand -2.98334 -42.5285
rfingers 7.12502
rthumb 22.73 -71.2096
lclavicle 3.57812e-015 1.63003e-014
lhumerus 0.0537991 -11.8507 80.2274
lradius 64.4221
lwrist 70.4432
lhand -26.9596 -15.3617
lfingers 7.12502
lthumb -0.381085 14.6177
rfemur -53.4924 10.3542 13.1494
rtibia 76.115
rfoot 14.0655 1.7717
rtoes -19.8434
lfemur -28.5932 -2.891 -30.2374
ltibia 44.1357
lfoot -20.9524 16.0547
ltoes 11.3708
432
root 3.56967 16.7087 0.0213037 8.14834 -2.52927 2.48019
lowerback -1.79753 0.903191 -0.720509
upperback 2.08071 1.2991 -2.45771
thorax 3.18827 0.661879 -2.06576
lowerneck -4.13182 9.97392 5.33041
upperneck 52.8639 14.719 2.10053
head 23.7616 6.8483 2.97955
rclavicle 7.7526e-015 -3.18055e-015
rhumerus -18.5502 8.04747 -90.2604
rradius 88.1438
rwrist -52.7109
rhand -2.97687 -42.4663
rfingers 7.12502
rthumb 22.7362 -71.1466
lclavicle 7.7526e-015 -3.18055e-015
lhumerus -0.310416 -11.9772 80.4926
lradius 64.3487
lwrist 70.4605
lhand -26.3305 -15.6855
lfingers 7.12502
lthumb 0.226518 14.2941
rfemur -53.2449 10.2036 13.1061
rtibia 76.0363
rfoot 13.9783 1.84917
rtoes -19.929
lfemur -28.3785 -2.84409 -30.3468
ltibia 44.0291
lfoot -21.0175 16.0059
ltoes 11.2676
433
root 3.5771 16.7143 0.0402336 8.09294 -2.52812 2.52209
lowerback -2.05313 0.947581 -0.622733
upperback 2.14567 1.36453 -2.52294
thorax 3.40602 0.69832 -2.18072
lowerneck -3.99023 9.92603 5.39678
upperneck 52.9127 14.6342 2.10404
head 23.7667 6.83427 2.94568
rclavicle -7.65321e-015 -3.97569e-015
rhumerus -19.0289 7.69922 -90.4338
rradius 88.2481
rwrist -52.5166
rhand -3.09378 -41.4757
rfingers 7.12502
rthumb 22.624 -70.1698
lclavicle -7.65321e-015 -3.97569e-015
lhumerus -0.568948 -11.9426 80.6917
lradius 64.2822
lwrist 70.5912
lhand -25.8583 -16.2448
lfingers 7.12502
lthumb 0.682603 13.7339
rfemur -52.9882 10.0986 13.0859
rtibia 75.9806
rfoot 13.9441 1.83105
rtoes -19.7422
lfemur -28.1581 -2.70234 -30.4476
ltibia 43.9182
lfoot -21.0845 15.8761
ltoes 11.0686
434
root 3.57872 16.7127 0.0513835 8.0283 -2.68451 2.5611
lowerback -2.1642 1.04705 -0.630852
upperback 2.1977 1.50337 -2.58054
thorax 3.529 0.768543 -2.22644
lowerneck -3.96012 9.88051 5.46801
upperneck 53.0111 14.5323 2.15995
head 23.859 6.81207 2.95451
rclavicle -3.69739e-014 7.15625e-015
rhumerus -19.3834 7.33504 -90.6166
rradius 88.3569
rwrist -52.227
rhand -3.29949 -40.5892
rfingers 7.12502
rthumb 22.4265 -69.3072
lclavicle -3.69739e-014 7.15625e-015
lhumerus -0.746382 -11.8787 80.8993
lradius 64.1144
lwrist 70.7198
lhand -26.533 -16.6886
lfingers 7.12502
lthumb 0.0309951 13.2911
rfemur -52.8409 10.1925 13.0721
rtibia 75.9896
rfoot 13.7894 1.73
rtoes -19.7054
lfemur -28.045 -2.47432 -30.5271
ltibia 43.8955
lfoot -21.0677 15.8014
ltoes 10.6117
435
root 3.57782 16.7035 0.0537423 7.9931 -2.78564 2.63287
lowerback -2.1033 1.11224 -0.713164
upperback 2.18679 1.59319 -2.62548
thorax 3.48561 0.811744 -2.22311
lowerneck -4.01804 9.85962 5.4319
upperneck 53.1434 14.4589 2.30271
head 23.9829 6.78369 3.04582
rclavicle 1.0635e-014 -9.93923e-015
rhumerus -19.625 7.08763 -90.7413
rradius 88.3106
rwrist -51.9931
rhand -3.29362 -40.8782
rfingers 7.12502
rthumb 22.4322 -69.5955
lclavicle 1.0635e-014 -9.93923e-015
lhumerus -0.953369 -11.8429 81.0925
lradius 63.8849
lwrist 70.9845
lhand -28.988 -16.7869
lfingers 7.12502
lthumb -2.34013 13.18
rfemur -52.8227 10.2359 13.0315
rtibia 76.0684
rfoot 13.5429 1.75397
rtoes -20.1082
lfemur -28.0457 -2.32542 -30.6162
ltibia 43.9661
lfoot -21.0448 15.7461
ltoes 10.3351
436
root 3.57913 16.6882 0.0571002 7.95876 -2.86193 2.59517
lowerback -2.05479 1.13927 -0.663371
upperback 2.1572 1.62529 -2.61914
thorax 3.42988 0.82873 -2.24395
lowerneck -3.96476 9.86517 5.10642
upperneck 53.2192 14.3657 2.67773
head 23.8809 6.72888 3.27876
rclavicle 1.19271e-015 -4.53229e-014
rhumerus -19.8323 7.06625 -90.8212
rradius 88.1294
rwrist -51.9701
rhand -3.08503 -41.7527
rfingers 7.12502
rthumb 22.6324 -70.4458
lclavicle 1.19271e-015 -4.53229e-014
lhumerus -1.39316 -11.6746 81.3241
lradius 63.8326
lwrist 71.2609
lhand -29.8084 -16.779
lfingers 7.12502
lthumb -3.13244 13.1777
rfemur -52.8207 10.2312 13.1149
rtibia 76.1669
rfoot 13.3754 1.90767
rtoes -20.8531
lfemur -28.0237 -2.13864 -30.6125
ltibia 44.0645
lfoot -21.1304 15.6481
ltoes 9.78237
437
root 3.58028 16.6751 0.053099 7.99027 -2.80681 2.62401
lowerback -2.05643 1.11388 -0.676462
upperback 2.15556 1.59204 -2.62482
thorax 3.42774 0.811897 -2.24415
lowerneck -4.00535 9.88894 4.71713
upperneck 53.2481 14.2912 3.08756
head 23.7482 6.67179 3.54637
rclavicle -1.50082e-014 -9.54166e-015
rhumerus -19.8982 7.09389 -90.8853
rradius 87.8776
rwrist -52.1504
rhand -2.99591 -42.3188
rfingers 7.12502
rthumb 22.7179 -71.0014
lclavicle -1.50082e-014 -9.54166e-015
lhumerus -1.71042 -11.4145 81.5571
lradius 63.8316
lwrist 71.4636
lhand -29.1963 -16.0709
lfingers 7.12502
lthumb -2.54132 13.8937
rfemur -52.9182 10.0602 13.1172
rtibia 76.2713
rfoot 13.2765 2.00761
rtoes -21.347
lfemur -28.0848 -2.07956 -30.6659
ltibia 44.136
lfoot -21.1749 15.5427
ltoes 9.06908
438
root 3.58366 16.6741 0.052798 7.93672 -2.76713 2.75328
lowerback -2.12186 1.10064 -0.764058
upperback 2.27574 1.58382 -2.66493
thorax 3.58774 0.806804 -2.23493
lowerneck -4.16609 9.90375 4.72647
upperneck 53.2592 14.3742 2.97843
head 23.8556 6.68243 3.52392
rclavicle -1.92821e-014 7.95139e-015
rhumerus -19.8831 7.05183 -90.9238
rradius 87.6428
rwrist -52.2936
rhand -3.02553 -42.8813
rfingers 7.12502
rthumb 22.6895 -71.5674
lclavicle -1.92821e-014 7.95139e-015
lhumerus -1.79128 -11.1792 81.7319
lradius 63.7716
lwrist 71.627
lhand -29.525 -15.0763
lfingers 7.12502
lthumb -2.85873 14.8843
rfemur -52.8427 9.91809 13.0053
rtibia 76.3061
rfoot 13.1199 1.97531
rtoes -21.5341
lfemur -28.0207 -2.11838 -30.8133
ltibia 44.1466
lfoot -21.2148 15.522
ltoes 9.01284
439
root 3.58567 16.6727 0.0544704 7.89865 -2.72475 2.88111
lowerback -2.09363 1.11381 -0.873218
upperback 2.26705 1.60564 -2.69873
thorax 3.56159 0.81526 -2.20802
lowerneck -4.16161 9.88012 4.84672
upperneck 53.4325 14.3923 2.88268
head 24.0941 6.68914 3.48555
rclavicle -1.19271e-015 0
rhumerus -20.1051 6.86614 -90.9791
rradius 87.4379
rwrist -52.2494
rhand -3.11065 -42.8693
rfingers 7.12502
rthumb 22.6078 -71.5654
lclavicle -1.19271e-015 0
lhumerus -2.0556 -11.1213 81.9177
lradius 63.6833
lwrist 71.7721
lhand -29.9683 -15.3275
lfingers 7.12502
lthumb -3.28689 14.6269
rfemur -52.7628 9.78686 12.8999
rtibia 76.3212
rfoot 12.995 1.91306
rtoes -21.8118
lfemur -27.9641 -2.11895 -30.9573
ltibia 44.135
lfoot -21.2914 15.4234
ltoes 8.83633
